<?xml version="1.0" encoding="UTF-8" standalone="no"?>
<svg width="854px" height="706px" viewBox="0 0 854 706" version="1.1" xmlns="http://www.w3.org/2000/svg" xmlns:xlink="http://www.w3.org/1999/xlink" xmlns:sketch="http://www.bohemiancoding.com/sketch/ns">
    <!-- Generator: Sketch 3.0.4 (8054) - http://www.bohemiancoding.com/sketch -->
    <title>sprite</title>
    <desc>Created with Sketch.</desc>
    <defs></defs>
    <g id="Page-1" stroke="none" stroke-width="1" fill="none" fill-rule="evenodd" sketch:type="MSPage">
        <g id="sprite" sketch:type="MSArtboardGroup">
            <g id="Celingest-black" sketch:type="MSLayerGroup" transform="translate(0.000000, 100.000000)" fill="#000000">
                <path d="M13.9573805,0 C6.24870796,0 0,6.34342945 0,14.1678896 C0,16.627135 0.617982301,18.9384785 1.7040354,20.9542699 C1.73699115,21.1072025 12.6257699,40.3095399 12.6257699,40.3095399 C12.9005664,40.791227 13.4082832,41.0897975 13.9573805,41.0897975 C14.5062301,41.0892945 15.012708,40.791227 15.2877522,40.3095399 C15.2877522,40.3095399 26.1757876,21.107454 26.2097345,20.9550245 C27.2957876,18.9394847 27.9132743,16.627135 27.9132743,14.1678896 C27.9132743,6.34342945 21.6648142,0 13.9573805,0 L13.9573805,0 Z M15.2533097,3.5491411 C19.6495575,4.10503067 23.212,7.3606319 24.2812035,11.6339387 L19.9932389,11.6339387 C19.1430796,9.6528589 17.388,8.1798773 15.2533097,7.73742945 L15.2533097,3.5491411 L15.2533097,3.5491411 Z M13.9239292,25.1606687 C8.02138053,25.1606687 3.23214159,20.3000307 3.23214159,14.3097546 C3.23214159,11.084589 4.62049558,8.18717178 6.81861947,6.20106135 C8.70651327,4.49390184 11.1970265,3.45733129 13.9239292,3.45733129 C14.2071504,3.45733129 14.4866549,3.46865031 14.7857345,3.49078528 L14.7830088,7.63731902 C14.4891327,7.60311043 14.208885,7.58223313 13.9239292,7.58223313 C11.8905841,7.58223313 10.0708319,8.51190184 8.85419469,9.97809202 C7.88484956,11.1487301 7.29684956,12.6584356 7.29684956,14.3097546 C7.29684956,18.0236503 10.2653451,21.0355153 13.9239292,21.0355153 C16.8929204,21.0355153 19.4077168,19.053681 20.2464779,16.1952515 L14.8256283,16.1952515 L14.8256283,12.2109571 L24.4259115,12.2109571 C24.4259115,12.2109571 24.5914336,13.2988405 24.6117522,14.0750736 C24.6006018,20.317638 19.8195398,25.1606687 13.9239292,25.1606687 L13.9239292,25.1606687 Z" id="Imported-Layers" sketch:type="MSShapeGroup"></path>
                <path d="M57.0515,27.004 C57.1955007,27.004 57.3214995,27.0624994 57.4295,27.1795 L58.469,28.3 C57.676996,29.2180046 56.7162556,29.9334974 55.58675,30.4465 C54.4572444,30.9595026 53.091508,31.216 51.4895,31.216 C50.1034931,31.216 48.8435057,30.9752524 47.7095,30.49375 C46.5754943,30.0122476 45.608004,29.3372543 44.807,28.46875 C44.005996,27.6002457 43.3850022,26.5585061 42.944,25.3435 C42.5029978,24.1284939 42.2825,22.7920073 42.2825,21.334 C42.2825,19.8759927 42.5119977,18.5395061 42.971,17.3245 C43.4300023,16.1094939 44.0757458,15.0655044 44.90825,14.1925 C45.7407542,13.3194956 46.7374942,12.6422524 47.8985,12.16075 C49.0595058,11.6792476 50.341993,11.4385 51.746,11.4385 C53.1230069,11.4385 54.3379947,11.6589978 55.391,12.1 C56.4440053,12.5410022 57.370996,13.1394962 58.172,13.8955 L57.308,15.097 C57.2539997,15.1870004 57.1842504,15.2612497 57.09875,15.31975 C57.0132496,15.3782503 56.8985007,15.4075 56.7545,15.4075 C56.5924992,15.4075 56.3945012,15.3197509 56.1605,15.14425 C55.9264988,14.9687491 55.6205019,14.7730011 55.2425,14.557 C54.8644981,14.3409989 54.3920028,14.1452509 53.825,13.96975 C53.2579972,13.7942491 52.5605041,13.7065 51.7325,13.7065 C50.733495,13.7065 49.8200041,13.8797483 48.992,14.22625 C48.1639959,14.5727517 47.450753,15.0744967 46.85225,15.7315 C46.253747,16.3885033 45.7880017,17.1894953 45.455,18.1345 C45.1219983,19.0795047 44.9555,20.1459941 44.9555,21.334 C44.9555,22.540006 45.1287483,23.6154953 45.47525,24.5605 C45.8217517,25.5055047 46.294247,26.3042467 46.89275,26.95675 C47.491253,27.6092533 48.1977459,28.1064983 49.01225,28.4485 C49.8267541,28.7905017 50.7064953,28.9615 51.6515,28.9615 C52.2275029,28.9615 52.7472477,28.9277503 53.21075,28.86025 C53.6742523,28.7927497 54.101748,28.6870007 54.49325,28.543 C54.884752,28.3989993 55.2492483,28.2167511 55.58675,27.99625 C55.9242517,27.7757489 56.2594983,27.5125015 56.5925,27.2065 C56.7455008,27.0714993 56.8984992,27.004 57.0515,27.004 L57.0515,27.004 Z M76.227,11.6545 L76.227,13.7875 L66.9255,13.7875 L66.9255,20.2135 L74.4585,20.2135 L74.4585,22.2655 L66.9255,22.2655 L66.9255,28.867 L76.2405,28.867 L76.227,31 L64.3065,31 L64.3065,11.6545 L76.227,11.6545 Z M85.3044999,28.7995 L93.6744999,28.7995 L93.6744999,31 L82.6989999,31 L82.6989999,11.6545 L85.3044999,11.6545 L85.3044999,28.7995 Z M101.9825,31 L99.3634999,31 L99.3634999,11.6545 L101.9825,11.6545 L101.9825,31 Z M111.0735,11.6545 C111.1905,11.6545 111.289499,11.6612499 111.3705,11.67475 C111.4515,11.6882501 111.523499,11.7107498 111.5865,11.74225 C111.6495,11.7737502 111.712499,11.8187497 111.7755,11.87725 C111.8385,11.9357503 111.905999,12.0099996 111.978,12.1 L123.1695,26.6665 C123.1515,26.4324988 123.13575,26.2052511 123.12225,25.98475 C123.10875,25.7642489 123.102,25.555001 123.102,25.357 L123.102,11.6545 L125.397,11.6545 L125.397,31 L124.0875,31 C123.880499,31 123.707251,30.9640004 123.56775,30.892 C123.428249,30.8199996 123.291,30.6985009 123.156,30.5275 L111.9645,15.961 C111.9825,16.1860011 111.996,16.4064989 112.005,16.6225 C112.014,16.8385011 112.0185,17.0364991 112.0185,17.2165 L112.0185,31 L109.7235,31 L109.7235,11.6545 L111.0735,11.6545 Z M148.852,29.1235 C147.879995,29.8255035 146.842755,30.3497483 145.74025,30.69625 C144.637744,31.0427517 143.429506,31.216 142.1155,31.216 C140.558492,31.216 139.154506,30.9752524 137.9035,30.49375 C136.652494,30.0122476 135.583754,29.3372543 134.69725,28.46875 C133.810745,27.6002457 133.129002,26.5585061 132.652,25.3435 C132.174997,24.1284939 131.9365,22.7920073 131.9365,21.334 C131.9365,19.8579926 132.168247,18.5125061 132.63175,17.2975 C133.095252,16.0824939 133.754495,15.0407543 134.6095,14.17225 C135.464504,13.3037457 136.503994,12.6310024 137.728,12.154 C138.952006,11.6769976 140.319992,11.4385 141.832,11.4385 C142.597004,11.4385 143.307996,11.4947494 143.965,11.60725 C144.622003,11.7197506 145.229497,11.8817489 145.7875,12.09325 C146.345503,12.3047511 146.862997,12.5612485 147.34,12.86275 C147.817002,13.1642515 148.262498,13.5039981 148.6765,13.882 L147.934,15.07 C147.816999,15.2500009 147.666251,15.3647498 147.48175,15.41425 C147.297249,15.4637502 147.092501,15.4210007 146.8675,15.286 C146.651499,15.1599994 146.404001,15.0070009 146.125,14.827 C145.845998,14.6469991 145.506252,14.4737508 145.10575,14.30725 C144.705248,14.1407492 144.232752,13.9990006 143.68825,13.882 C143.143747,13.7649994 142.498003,13.7065 141.751,13.7065 C140.661994,13.7065 139.676504,13.8842482 138.7945,14.23975 C137.912495,14.5952518 137.161003,15.1037467 136.54,15.76525 C135.918997,16.4267533 135.442001,17.2277453 135.109,18.16825 C134.775998,19.1087547 134.6095,20.1639942 134.6095,21.334 C134.6095,22.5490061 134.782748,23.6357452 135.12925,24.59425 C135.475751,25.5527548 135.970747,26.3672466 136.61425,27.03775 C137.257753,27.7082534 138.038495,28.2189982 138.9565,28.57 C139.874504,28.9210018 140.904994,29.0965 142.048,29.0965 C142.498002,29.0965 142.918748,29.0695003 143.31025,29.0155 C143.701752,28.9614997 144.077498,28.8872505 144.4375,28.79275 C144.797502,28.6982495 145.143998,28.5812507 145.477,28.44175 C145.810001,28.3022493 146.147498,28.1425009 146.4895,27.9625 L146.4895,23.6965 L143.479,23.6965 C143.307999,23.6965 143.17075,23.6470005 143.06725,23.548 C142.963749,23.4489995 142.912,23.3275007 142.912,23.1835 L142.912,21.6985 L148.852,21.6985 L148.852,29.1235 Z M167.582,11.6545 L167.582,13.7875 L158.2805,13.7875 L158.2805,20.2135 L165.8135,20.2135 L165.8135,22.2655 L158.2805,22.2655 L158.2805,28.867 L167.5955,28.867 L167.582,31 L155.6615,31 L155.6615,11.6545 L167.582,11.6545 Z M183.9495,14.6785 C183.868499,14.8135007 183.78075,14.9147497 183.68625,14.98225 C183.591749,15.0497503 183.477,15.0835 183.342,15.0835 C183.188999,15.0835 183.009001,15.0070008 182.802,14.854 C182.594999,14.7009992 182.336251,14.5322509 182.02575,14.34775 C181.715248,14.1632491 181.341752,13.9945008 180.90525,13.8415 C180.468747,13.6884992 179.940003,13.612 179.319,13.612 C178.733997,13.612 178.218752,13.6907492 177.77325,13.84825 C177.327747,14.0057508 176.954251,14.2194986 176.65275,14.4895 C176.351248,14.7595013 176.124,15.0767482 175.971,15.44125 C175.817999,15.8057518 175.7415,16.1994979 175.7415,16.6225 C175.7415,17.1625027 175.874248,17.6102482 176.13975,17.96575 C176.405251,18.3212518 176.756247,18.6249987 177.19275,18.877 C177.629252,19.1290013 178.124247,19.3472491 178.67775,19.53175 C179.231252,19.7162509 179.798247,19.907499 180.37875,20.1055 C180.959253,20.303501 181.526247,20.5262488 182.07975,20.77375 C182.633252,21.0212512 183.128247,21.3339981 183.56475,21.712 C184.001252,22.0900019 184.352248,22.5534973 184.61775,23.1025 C184.883251,23.6515027 185.016,24.326496 185.016,25.1275 C185.016,25.9735042 184.872001,26.7677463 184.584,27.51025 C184.295998,28.2527537 183.875252,28.8984973 183.32175,29.4475 C182.768247,29.9965027 182.088754,30.4284984 181.28325,30.7435 C180.477746,31.0585016 179.562005,31.216 178.536,31.216 C177.275993,31.216 176.133005,30.9887523 175.107,30.53425 C174.080995,30.0797477 173.203503,29.4655039 172.4745,28.6915 L173.2305,27.4495 C173.3025,27.3504995 173.390249,27.2672503 173.49375,27.19975 C173.59725,27.1322497 173.711999,27.0985 173.838,27.0985 C173.955,27.0985 174.087749,27.1457495 174.23625,27.24025 C174.38475,27.3347505 174.553499,27.4539993 174.7425,27.598 C174.931501,27.7420007 175.147498,27.8994991 175.3905,28.0705 C175.633501,28.2415009 175.910248,28.3989993 176.22075,28.543 C176.531251,28.6870007 176.884498,28.8062495 177.2805,28.90075 C177.676502,28.9952505 178.121997,29.0425 178.617,29.0425 C179.238003,29.0425 179.791497,28.9570009 180.2775,28.786 C180.763502,28.6149991 181.175248,28.3742516 181.51275,28.06375 C181.850251,27.7532484 182.108999,27.3820022 182.289,26.95 C182.469001,26.5179978 182.559,26.0365027 182.559,25.5055 C182.559,24.9204971 182.426251,24.4412519 182.16075,24.06775 C181.895248,23.6942481 181.546502,23.3815013 181.1145,23.1295 C180.682498,22.8774987 180.187502,22.6637509 179.6295,22.48825 C179.071497,22.3127491 178.504503,22.1327509 177.9285,21.94825 C177.352497,21.7637491 176.785502,21.5500012 176.2275,21.307 C175.669497,21.0639988 175.174502,20.7490019 174.7425,20.362 C174.310498,19.9749981 173.961751,19.4912529 173.69625,18.91075 C173.430748,18.3302471 173.298,17.6125043 173.298,16.7575 C173.298,16.0734966 173.430748,15.4120032 173.69625,14.773 C173.961751,14.1339968 174.348747,13.5670025 174.85725,13.072 C175.365752,12.5769975 175.991246,12.1810015 176.73375,11.884 C177.476253,11.5869985 178.328995,11.4385 179.292,11.4385 C180.372005,11.4385 181.355245,11.6094983 182.24175,11.9515 C183.128254,12.2935017 183.908996,12.7884968 184.584,13.4365 L183.9495,14.6785 Z M204.583,11.6545 L204.583,13.855 L198.319,13.855 L198.319,31 L195.7135,31 L195.7135,13.855 L189.436,13.855 L189.436,11.6545 L204.583,11.6545 Z" id="CELINGEST" sketch:type="MSShapeGroup"></path>
            </g>
            <g id="Celingest-white" sketch:type="MSLayerGroup" fill="#FFFFFF">
                <path d="M13.9573805,0 C6.24870796,0 0,6.34342945 0,14.1678896 C0,16.627135 0.617982301,18.9384785 1.7040354,20.9542699 C1.73699115,21.1072025 12.6257699,40.3095399 12.6257699,40.3095399 C12.9005664,40.791227 13.4082832,41.0897975 13.9573805,41.0897975 C14.5062301,41.0892945 15.012708,40.791227 15.2877522,40.3095399 C15.2877522,40.3095399 26.1757876,21.107454 26.2097345,20.9550245 C27.2957876,18.9394847 27.9132743,16.627135 27.9132743,14.1678896 C27.9132743,6.34342945 21.6648142,0 13.9573805,0 L13.9573805,0 Z M15.2533097,3.5491411 C19.6495575,4.10503067 23.212,7.3606319 24.2812035,11.6339387 L19.9932389,11.6339387 C19.1430796,9.6528589 17.388,8.1798773 15.2533097,7.73742945 L15.2533097,3.5491411 L15.2533097,3.5491411 Z M13.9239292,25.1606687 C8.02138053,25.1606687 3.23214159,20.3000307 3.23214159,14.3097546 C3.23214159,11.084589 4.62049558,8.18717178 6.81861947,6.20106135 C8.70651327,4.49390184 11.1970265,3.45733129 13.9239292,3.45733129 C14.2071504,3.45733129 14.4866549,3.46865031 14.7857345,3.49078528 L14.7830088,7.63731902 C14.4891327,7.60311043 14.208885,7.58223313 13.9239292,7.58223313 C11.8905841,7.58223313 10.0708319,8.51190184 8.85419469,9.97809202 C7.88484956,11.1487301 7.29684956,12.6584356 7.29684956,14.3097546 C7.29684956,18.0236503 10.2653451,21.0355153 13.9239292,21.0355153 C16.8929204,21.0355153 19.4077168,19.053681 20.2464779,16.1952515 L14.8256283,16.1952515 L14.8256283,12.2109571 L24.4259115,12.2109571 C24.4259115,12.2109571 24.5914336,13.2988405 24.6117522,14.0750736 C24.6006018,20.317638 19.8195398,25.1606687 13.9239292,25.1606687 L13.9239292,25.1606687 Z" id="Imported-Layers" sketch:type="MSShapeGroup"></path>
                <path d="M57.0515,27.004 C57.1955007,27.004 57.3214995,27.0624994 57.4295,27.1795 L58.469,28.3 C57.676996,29.2180046 56.7162556,29.9334974 55.58675,30.4465 C54.4572444,30.9595026 53.091508,31.216 51.4895,31.216 C50.1034931,31.216 48.8435057,30.9752524 47.7095,30.49375 C46.5754943,30.0122476 45.608004,29.3372543 44.807,28.46875 C44.005996,27.6002457 43.3850022,26.5585061 42.944,25.3435 C42.5029978,24.1284939 42.2825,22.7920073 42.2825,21.334 C42.2825,19.8759927 42.5119977,18.5395061 42.971,17.3245 C43.4300023,16.1094939 44.0757458,15.0655044 44.90825,14.1925 C45.7407542,13.3194956 46.7374942,12.6422524 47.8985,12.16075 C49.0595058,11.6792476 50.341993,11.4385 51.746,11.4385 C53.1230069,11.4385 54.3379947,11.6589978 55.391,12.1 C56.4440053,12.5410022 57.370996,13.1394962 58.172,13.8955 L57.308,15.097 C57.2539997,15.1870004 57.1842504,15.2612497 57.09875,15.31975 C57.0132496,15.3782503 56.8985007,15.4075 56.7545,15.4075 C56.5924992,15.4075 56.3945012,15.3197509 56.1605,15.14425 C55.9264988,14.9687491 55.6205019,14.7730011 55.2425,14.557 C54.8644981,14.3409989 54.3920028,14.1452509 53.825,13.96975 C53.2579972,13.7942491 52.5605041,13.7065 51.7325,13.7065 C50.733495,13.7065 49.8200041,13.8797483 48.992,14.22625 C48.1639959,14.5727517 47.450753,15.0744967 46.85225,15.7315 C46.253747,16.3885033 45.7880017,17.1894953 45.455,18.1345 C45.1219983,19.0795047 44.9555,20.1459941 44.9555,21.334 C44.9555,22.540006 45.1287483,23.6154953 45.47525,24.5605 C45.8217517,25.5055047 46.294247,26.3042467 46.89275,26.95675 C47.491253,27.6092533 48.1977459,28.1064983 49.01225,28.4485 C49.8267541,28.7905017 50.7064953,28.9615 51.6515,28.9615 C52.2275029,28.9615 52.7472477,28.9277503 53.21075,28.86025 C53.6742523,28.7927497 54.101748,28.6870007 54.49325,28.543 C54.884752,28.3989993 55.2492483,28.2167511 55.58675,27.99625 C55.9242517,27.7757489 56.2594983,27.5125015 56.5925,27.2065 C56.7455008,27.0714993 56.8984992,27.004 57.0515,27.004 L57.0515,27.004 Z M76.227,11.6545 L76.227,13.7875 L66.9255,13.7875 L66.9255,20.2135 L74.4585,20.2135 L74.4585,22.2655 L66.9255,22.2655 L66.9255,28.867 L76.2405,28.867 L76.227,31 L64.3065,31 L64.3065,11.6545 L76.227,11.6545 Z M85.3044999,28.7995 L93.6744999,28.7995 L93.6744999,31 L82.6989999,31 L82.6989999,11.6545 L85.3044999,11.6545 L85.3044999,28.7995 Z M101.9825,31 L99.3634999,31 L99.3634999,11.6545 L101.9825,11.6545 L101.9825,31 Z M111.0735,11.6545 C111.1905,11.6545 111.289499,11.6612499 111.3705,11.67475 C111.4515,11.6882501 111.523499,11.7107498 111.5865,11.74225 C111.6495,11.7737502 111.712499,11.8187497 111.7755,11.87725 C111.8385,11.9357503 111.905999,12.0099995 111.978,12.1 L123.1695,26.6665 C123.1515,26.4324988 123.13575,26.2052511 123.12225,25.98475 C123.10875,25.7642489 123.102,25.555001 123.102,25.357 L123.102,11.6545 L125.397,11.6545 L125.397,31 L124.0875,31 C123.880499,31 123.707251,30.9640004 123.56775,30.892 C123.428249,30.8199996 123.291,30.6985009 123.156,30.5275 L111.9645,15.961 C111.9825,16.1860011 111.996,16.4064989 112.005,16.6225 C112.014,16.8385011 112.0185,17.0364991 112.0185,17.2165 L112.0185,31 L109.7235,31 L109.7235,11.6545 L111.0735,11.6545 Z M148.852,29.1235 C147.879995,29.8255035 146.842755,30.3497483 145.74025,30.69625 C144.637744,31.0427517 143.429506,31.216 142.1155,31.216 C140.558492,31.216 139.154506,30.9752524 137.9035,30.49375 C136.652494,30.0122476 135.583754,29.3372543 134.69725,28.46875 C133.810745,27.6002457 133.129002,26.5585061 132.652,25.3435 C132.174997,24.1284939 131.9365,22.7920073 131.9365,21.334 C131.9365,19.8579926 132.168247,18.5125061 132.63175,17.2975 C133.095252,16.0824939 133.754495,15.0407543 134.6095,14.17225 C135.464504,13.3037457 136.503994,12.6310024 137.728,12.154 C138.952006,11.6769976 140.319992,11.4385 141.832,11.4385 C142.597004,11.4385 143.307996,11.4947494 143.965,11.60725 C144.622003,11.7197506 145.229497,11.8817489 145.7875,12.09325 C146.345503,12.3047511 146.862997,12.5612485 147.34,12.86275 C147.817002,13.1642515 148.262498,13.5039981 148.6765,13.882 L147.934,15.07 C147.816999,15.2500009 147.666251,15.3647498 147.48175,15.41425 C147.297249,15.4637502 147.092501,15.4210007 146.8675,15.286 C146.651499,15.1599994 146.404001,15.0070009 146.125,14.827 C145.845998,14.6469991 145.506252,14.4737508 145.10575,14.30725 C144.705248,14.1407492 144.232752,13.9990006 143.68825,13.882 C143.143747,13.7649994 142.498003,13.7065 141.751,13.7065 C140.661994,13.7065 139.676504,13.8842482 138.7945,14.23975 C137.912495,14.5952518 137.161003,15.1037467 136.54,15.76525 C135.918997,16.4267533 135.442001,17.2277453 135.109,18.16825 C134.775998,19.1087547 134.6095,20.1639941 134.6095,21.334 C134.6095,22.5490061 134.782748,23.6357452 135.12925,24.59425 C135.475751,25.5527548 135.970747,26.3672466 136.61425,27.03775 C137.257753,27.7082534 138.038495,28.2189982 138.9565,28.57 C139.874504,28.9210018 140.904994,29.0965 142.048,29.0965 C142.498002,29.0965 142.918748,29.0695003 143.31025,29.0155 C143.701752,28.9614997 144.077498,28.8872505 144.4375,28.79275 C144.797502,28.6982495 145.143998,28.5812507 145.477,28.44175 C145.810001,28.3022493 146.147498,28.1425009 146.4895,27.9625 L146.4895,23.6965 L143.479,23.6965 C143.307999,23.6965 143.17075,23.6470005 143.06725,23.548 C142.963749,23.4489995 142.912,23.3275007 142.912,23.1835 L142.912,21.6985 L148.852,21.6985 L148.852,29.1235 Z M167.582,11.6545 L167.582,13.7875 L158.2805,13.7875 L158.2805,20.2135 L165.8135,20.2135 L165.8135,22.2655 L158.2805,22.2655 L158.2805,28.867 L167.5955,28.867 L167.582,31 L155.6615,31 L155.6615,11.6545 L167.582,11.6545 Z M183.9495,14.6785 C183.868499,14.8135007 183.78075,14.9147497 183.68625,14.98225 C183.591749,15.0497503 183.477,15.0835 183.342,15.0835 C183.188999,15.0835 183.009001,15.0070008 182.802,14.854 C182.594999,14.7009992 182.336251,14.5322509 182.02575,14.34775 C181.715248,14.1632491 181.341752,13.9945008 180.90525,13.8415 C180.468747,13.6884992 179.940003,13.612 179.319,13.612 C178.733997,13.612 178.218752,13.6907492 177.77325,13.84825 C177.327747,14.0057508 176.954251,14.2194986 176.65275,14.4895 C176.351248,14.7595013 176.124,15.0767482 175.971,15.44125 C175.817999,15.8057518 175.7415,16.1994979 175.7415,16.6225 C175.7415,17.1625027 175.874248,17.6102482 176.13975,17.96575 C176.405251,18.3212518 176.756247,18.6249987 177.19275,18.877 C177.629252,19.1290013 178.124247,19.3472491 178.67775,19.53175 C179.231252,19.7162509 179.798247,19.907499 180.37875,20.1055 C180.959253,20.303501 181.526247,20.5262488 182.07975,20.77375 C182.633252,21.0212512 183.128247,21.3339981 183.56475,21.712 C184.001252,22.0900019 184.352248,22.5534973 184.61775,23.1025 C184.883251,23.6515027 185.016,24.326496 185.016,25.1275 C185.016,25.9735042 184.872001,26.7677463 184.584,27.51025 C184.295998,28.2527537 183.875252,28.8984973 183.32175,29.4475 C182.768247,29.9965027 182.088754,30.4284984 181.28325,30.7435 C180.477746,31.0585016 179.562005,31.216 178.536,31.216 C177.275993,31.216 176.133005,30.9887523 175.107,30.53425 C174.080995,30.0797477 173.203503,29.4655039 172.4745,28.6915 L173.2305,27.4495 C173.3025,27.3504995 173.390249,27.2672503 173.49375,27.19975 C173.59725,27.1322497 173.711999,27.0985 173.838,27.0985 C173.955,27.0985 174.087749,27.1457495 174.23625,27.24025 C174.38475,27.3347505 174.553499,27.4539993 174.7425,27.598 C174.931501,27.7420007 175.147498,27.8994991 175.3905,28.0705 C175.633501,28.2415009 175.910248,28.3989993 176.22075,28.543 C176.531251,28.6870007 176.884498,28.8062495 177.2805,28.90075 C177.676502,28.9952505 178.121997,29.0425 178.617,29.0425 C179.238003,29.0425 179.791497,28.9570009 180.2775,28.786 C180.763502,28.6149991 181.175248,28.3742516 181.51275,28.06375 C181.850251,27.7532484 182.108999,27.3820022 182.289,26.95 C182.469001,26.5179978 182.559,26.0365027 182.559,25.5055 C182.559,24.9204971 182.426251,24.4412519 182.16075,24.06775 C181.895248,23.6942481 181.546502,23.3815013 181.1145,23.1295 C180.682498,22.8774987 180.187502,22.6637509 179.6295,22.48825 C179.071497,22.3127491 178.504503,22.1327509 177.9285,21.94825 C177.352497,21.7637491 176.785502,21.5500012 176.2275,21.307 C175.669497,21.0639988 175.174502,20.7490019 174.7425,20.362 C174.310498,19.9749981 173.961751,19.4912529 173.69625,18.91075 C173.430748,18.3302471 173.298,17.6125043 173.298,16.7575 C173.298,16.0734966 173.430748,15.4120032 173.69625,14.773 C173.961751,14.1339968 174.348747,13.5670025 174.85725,13.072 C175.365752,12.5769975 175.991246,12.1810015 176.73375,11.884 C177.476253,11.5869985 178.328995,11.4385 179.292,11.4385 C180.372005,11.4385 181.355245,11.6094983 182.24175,11.9515 C183.128254,12.2935017 183.908996,12.7884968 184.584,13.4365 L183.9495,14.6785 Z M204.583,11.6545 L204.583,13.855 L198.319,13.855 L198.319,31 L195.7135,31 L195.7135,13.855 L189.436,13.855 L189.436,11.6545 L204.583,11.6545 Z" id="CELINGEST" sketch:type="MSShapeGroup"></path>
            </g>
            <g id="Social-logos-white" sketch:type="MSLayerGroup" transform="translate(299.000000, 0.000000)" fill="#FFFFFF">
                <path d="M5.02552696,30 L5.02552696,16.315671 L0.420479822,16.315671 L0.420479822,10.9825495 L5.02552696,10.9825495 L5.02552696,7.04957102 C5.02552696,2.48530346 7.81310243,0 11.8848374,0 C13.8351075,0 15.5113071,0.145244148 16,0.21012075 L16,4.98000741 L13.1758818,4.98133143 C10.9616036,4.98133143 10.5328885,6.03352399 10.5328885,7.57758712 L10.5328885,10.9825495 L15.8138439,10.9825495 L15.1261519,16.315671 L10.5328885,16.315671 L10.5328885,30 L5.02552696,30 Z" id="Facebook" sketch:type="MSShapeGroup"></path>
                <path d="M110.846391,25.4437251 C107.218984,25.4437251 103.842604,24.380411 101,22.5579469 C101.502512,22.617268 102.013842,22.6476157 102.532272,22.6476157 C105.541616,22.6476157 108.311272,21.6207189 110.509589,19.8980012 C107.698821,19.8461239 105.326663,17.9890748 104.509337,15.4371211 C104.901452,15.5121314 105.303874,15.5523278 105.717747,15.5523278 C106.30363,15.5523278 106.871074,15.4738819 107.410117,15.3270678 C104.471546,14.7370631 102.257539,12.1409049 102.257539,9.0287215 C102.257539,9.00169489 102.257539,8.97478279 102.257997,8.94798522 C103.124109,9.42908185 104.114474,9.71801468 105.167481,9.75133987 C103.443962,8.59950222 102.309875,6.63343054 102.309875,4.40499458 C102.309875,3.2278481 102.626636,2.12445221 103.179536,1.17577224 C106.347605,5.06187873 111.080584,7.61910033 116.419027,7.88696156 C116.309546,7.4168588 116.25263,6.9266006 116.25263,6.42317265 C116.25263,2.87592952 119.128674,0 122.676146,0 C124.523576,0 126.192927,0.78010719 127.364691,2.02848483 C128.827793,1.74035364 130.202486,1.20577637 131.443534,0.469759203 C130.963926,1.96962178 129.945504,3.2284207 128.619253,4.02341543 C129.918592,3.86812692 131.156548,3.52285047 132.3085,3.01197874 C131.447313,4.30009467 130.358232,5.43143332 129.103327,6.33705394 C129.115695,6.61247347 129.121879,6.88949626 129.121879,7.16800781 C129.121879,15.6560825 122.661144,25.4437251 110.846391,25.4437251" id="Twitter" sketch:type="MSShapeGroup"></path>
                <path d="M203.00733,0 C201.898712,0 201,0.898338318 201,2.00732994 L201,24.9926701 C201,26.1012878 201.898338,27 203.00733,27 L225.99267,27 C227.101288,27 228,26.1016617 228,24.9926701 L228,2.00732994 C228,0.898712226 227.101662,0 225.99267,0 L203.00733,0 Z M207.004625,3.71725 C208.284875,3.71725 209.3255,4.757875 209.3255,6.038625 C209.3255,7.32075 208.284875,8.361375 207.004625,8.361375 C205.721,8.361375 204.683375,7.32075 204.683375,6.038625 C204.683375,4.757875 205.721,3.71725 207.004625,3.71725 Z M205.00125,10.123 L209.007625,10.123 L209.007625,23.007875 L205.00125,23.007875 L205.00125,10.123 Z M211.51925,10.123 L215.361125,10.123 L215.361125,11.882875 L215.41575,11.882875 C215.9505,10.870125 217.257125,9.80175 219.205375,9.80175 C223.257625,9.80175 224.006125,12.46975 224.006125,15.940375 L224.006125,23.007875 L220.006125,23.007875 L220.006125,16.74225 C220.006125,15.247125 219.97675,13.32525 217.9245,13.32525 C215.840625,13.32525 215.52275,14.953125 215.52275,16.63375 L215.52275,23.007875 L211.51925,23.007875 L211.51925,10.123 Z" id="LinkedIn-White" sketch:type="MSShapeGroup"></path>
                <g id="Google+" transform="translate(301.000000, 0.000000)" sketch:type="MSShapeGroup">
                    <path d="M15.7721628,17.2686739 C14.911758,16.6742648 13.2664023,15.2284455 13.2664023,14.3789139 C13.2664023,13.3828466 13.5578235,12.8921397 15.0934632,11.7209809 C16.6679846,10.520515 17.7820837,8.83272381 17.7820837,6.86952057 C17.7820837,4.5324633 16.7153358,2.25439607 14.7134992,1.50293071 L17.7316528,1.50293071 L19.862069,0 L10.3429509,0 C6.07518918,0 2.05881197,3.15540304 2.05881197,6.81090627 C2.05881197,10.5460648 4.96801954,13.5609438 9.30969519,13.5609438 C9.61151056,13.5609438 9.90485662,13.5549321 10.1920432,13.5346426 C9.91024618,14.0614198 9.70890761,14.6543259 9.70890761,15.2701518 C9.70890761,16.3079255 10.2809709,17.1499424 11.0043269,17.8367817 C10.4580565,17.8367817 9.92987958,17.8521868 9.35435155,17.8521868 C4.06834796,17.8521868 0,21.137969 0,24.545113 C0,27.9007815 4.45986101,30 9.7458646,30 C15.7721628,30 19.1006011,26.6627423 19.1006011,23.3066981 C19.1006011,20.6160763 18.2871625,19.0045589 15.7721628,17.2686739 C15.7721628,17.2686739 18.2871625,19.0045589 15.7721628,17.2686739 L15.7721628,17.2686739 L15.7721628,17.2686739 Z M10.704331,12.5259716 C8.23083417,12.4551694 5.88002219,9.87014328 5.45334303,6.75335524 C5.02627561,3.63544927 6.68485014,1.24941461 9.15757045,1.32021683 C11.6302908,1.39176433 13.9818792,3.89294574 14.4089466,7.01010643 C14.8352375,10.1280124 13.176663,12.5971465 10.704331,12.5259716 C10.704331,12.5259716 13.176663,12.5971465 10.704331,12.5259716 L10.704331,12.5259716 L10.704331,12.5259716 Z M9.61597736,28.6813187 C5.98708524,28.6813187 3.36645237,26.4037081 3.36645237,23.6673147 C3.36645237,20.9855202 6.61719948,18.7530296 10.2460916,18.7917038 C11.0926164,18.8008037 11.8817886,18.9357844 12.5983142,19.1659342 C14.5681859,20.5244623 15.9813547,21.291881 16.3801466,22.8399888 C16.4550874,23.1539328 16.4956166,23.4769766 16.4956166,23.8068453 C16.4956166,26.5432388 14.717685,28.6813187 9.61597736,28.6813187 L9.61597736,28.6813187 Z" id="Fill-4"></path>
                    <path d="M25.4482759,11.1877395 L25.4482759,6.66666667 L27.5172414,6.66666667 L27.5172414,11.1877395 L32.0383142,11.1877395 L32.0383142,13.256705 L27.5172414,13.256705 L27.5172414,17.7777778 L25.4482759,17.7777778 L25.4482759,13.256705 L20.9272031,13.256705 L20.9272031,11.1877395 L25.4482759,11.1877395 Z" id="Rectangle-159"></path>
                </g>
            </g>
            <g id="Social-logos-blue" sketch:type="MSLayerGroup" transform="translate(299.000000, 100.000000)" fill="#008ACC">
                <path d="M5.02552696,30 L5.02552696,16.315671 L0.420479822,16.315671 L0.420479822,10.9825495 L5.02552696,10.9825495 L5.02552696,7.04957102 C5.02552696,2.48530346 7.81310243,0 11.8848374,0 C13.8351075,0 15.5113071,0.145244148 16,0.21012075 L16,4.98000741 L13.1758818,4.98133143 C10.9616036,4.98133143 10.5328885,6.03352399 10.5328885,7.57758712 L10.5328885,10.9825495 L15.8138439,10.9825495 L15.1261519,16.315671 L10.5328885,16.315671 L10.5328885,30 L5.02552696,30 Z" id="Facebook" sketch:type="MSShapeGroup"></path>
                <path d="M110.846391,25.4437251 C107.218984,25.4437251 103.842604,24.380411 101,22.5579469 C101.502512,22.617268 102.013842,22.6476157 102.532272,22.6476157 C105.541616,22.6476157 108.311272,21.6207189 110.509589,19.8980012 C107.698821,19.8461239 105.326663,17.9890748 104.509337,15.4371211 C104.901452,15.5121314 105.303874,15.5523278 105.717747,15.5523278 C106.30363,15.5523278 106.871074,15.4738819 107.410117,15.3270678 C104.471546,14.7370631 102.257539,12.1409049 102.257539,9.0287215 C102.257539,9.00169489 102.257539,8.97478279 102.257997,8.94798522 C103.124109,9.42908185 104.114474,9.71801468 105.167481,9.75133987 C103.443962,8.59950222 102.309875,6.63343054 102.309875,4.40499458 C102.309875,3.2278481 102.626636,2.12445221 103.179536,1.17577224 C106.347605,5.06187873 111.080584,7.61910033 116.419027,7.88696156 C116.309546,7.4168588 116.25263,6.9266006 116.25263,6.42317265 C116.25263,2.87592952 119.128674,0 122.676146,0 C124.523576,0 126.192927,0.78010719 127.364691,2.02848483 C128.827793,1.74035364 130.202486,1.20577637 131.443534,0.469759203 C130.963926,1.96962178 129.945504,3.2284207 128.619253,4.02341543 C129.918592,3.86812692 131.156548,3.52285047 132.3085,3.01197874 C131.447313,4.30009467 130.358232,5.43143332 129.103327,6.33705394 C129.115695,6.61247347 129.121879,6.88949626 129.121879,7.16800781 C129.121879,15.6560825 122.661144,25.4437251 110.846391,25.4437251" id="Twitter" sketch:type="MSShapeGroup"></path>
                <path d="M203.00733,0 C201.898712,0 201,0.898338318 201,2.00732994 L201,24.9926701 C201,26.1012878 201.898338,27 203.00733,27 L225.99267,27 C227.101288,27 228,26.1016617 228,24.9926701 L228,2.00732994 C228,0.898712226 227.101662,0 225.99267,0 L203.00733,0 Z M207.004625,3.71725 C208.284875,3.71725 209.3255,4.757875 209.3255,6.038625 C209.3255,7.32075 208.284875,8.361375 207.004625,8.361375 C205.721,8.361375 204.683375,7.32075 204.683375,6.038625 C204.683375,4.757875 205.721,3.71725 207.004625,3.71725 Z M205.00125,10.123 L209.007625,10.123 L209.007625,23.007875 L205.00125,23.007875 L205.00125,10.123 Z M211.51925,10.123 L215.361125,10.123 L215.361125,11.882875 L215.41575,11.882875 C215.9505,10.870125 217.257125,9.80175 219.205375,9.80175 C223.257625,9.80175 224.006125,12.46975 224.006125,15.940375 L224.006125,23.007875 L220.006125,23.007875 L220.006125,16.74225 C220.006125,15.247125 219.97675,13.32525 217.9245,13.32525 C215.840625,13.32525 215.52275,14.953125 215.52275,16.63375 L215.52275,23.007875 L211.51925,23.007875 L211.51925,10.123 Z" id="LinkedIn-White" sketch:type="MSShapeGroup"></path>
                <g id="Google+" transform="translate(301.000000, 0.000000)" sketch:type="MSShapeGroup">
                    <path d="M15.7721628,17.2686739 C14.911758,16.6742648 13.2664023,15.2284455 13.2664023,14.3789139 C13.2664023,13.3828466 13.5578235,12.8921397 15.0934632,11.7209809 C16.6679846,10.520515 17.7820837,8.83272381 17.7820837,6.86952057 C17.7820837,4.5324633 16.7153358,2.25439607 14.7134992,1.50293071 L17.7316528,1.50293071 L19.862069,0 L10.3429509,0 C6.07518918,0 2.05881197,3.15540304 2.05881197,6.81090627 C2.05881197,10.5460648 4.96801954,13.5609438 9.30969519,13.5609438 C9.61151056,13.5609438 9.90485662,13.5549321 10.1920432,13.5346426 C9.91024618,14.0614198 9.70890761,14.6543259 9.70890761,15.2701518 C9.70890761,16.3079255 10.2809709,17.1499424 11.0043269,17.8367817 C10.4580565,17.8367817 9.92987958,17.8521868 9.35435155,17.8521868 C4.06834796,17.8521868 0,21.137969 0,24.545113 C0,27.9007815 4.45986101,30 9.7458646,30 C15.7721628,30 19.1006011,26.6627423 19.1006011,23.3066981 C19.1006011,20.6160763 18.2871625,19.0045589 15.7721628,17.2686739 C15.7721628,17.2686739 18.2871625,19.0045589 15.7721628,17.2686739 L15.7721628,17.2686739 L15.7721628,17.2686739 Z M10.704331,12.5259716 C8.23083417,12.4551694 5.88002219,9.87014328 5.45334303,6.75335524 C5.02627561,3.63544927 6.68485014,1.24941461 9.15757045,1.32021683 C11.6302908,1.39176433 13.9818792,3.89294574 14.4089466,7.01010643 C14.8352375,10.1280124 13.176663,12.5971465 10.704331,12.5259716 C10.704331,12.5259716 13.176663,12.5971465 10.704331,12.5259716 L10.704331,12.5259716 L10.704331,12.5259716 Z M9.61597736,28.6813187 C5.98708524,28.6813187 3.36645237,26.4037081 3.36645237,23.6673147 C3.36645237,20.9855202 6.61719948,18.7530296 10.2460916,18.7917038 C11.0926164,18.8008037 11.8817886,18.9357844 12.5983142,19.1659342 C14.5681859,20.5244623 15.9813547,21.291881 16.3801466,22.8399888 C16.4550874,23.1539328 16.4956166,23.4769766 16.4956166,23.8068453 C16.4956166,26.5432388 14.717685,28.6813187 9.61597736,28.6813187 L9.61597736,28.6813187 Z" id="Fill-4"></path>
                    <path d="M25.4482759,11.1877395 L25.4482759,6.66666667 L27.5172414,6.66666667 L27.5172414,11.1877395 L32.0383142,11.1877395 L32.0383142,13.256705 L27.5172414,13.256705 L27.5172414,17.7777778 L25.4482759,17.7777778 L25.4482759,13.256705 L20.9272031,13.256705 L20.9272031,11.1877395 L25.4482759,11.1877395 Z" id="Rectangle-159"></path>
                </g>
            </g>
            <g id="Arrows-white" sketch:type="MSLayerGroup" transform="translate(700.000000, 0.000000)" stroke="#FFFFFF">
                <path d="M54.254717,-0.279296875 L-0.131086656,53.0993623 L53.4922299,105.729654" id="Path-53" sketch:type="MSShapeGroup"></path>
                <path d="M154.254717,-0.279296875 L99.8689133,53.0993623 L153.49223,105.729654" id="Path-54" sketch:type="MSShapeGroup" transform="translate(127.000000, 53.000000) rotate(-180.000000) translate(-127.000000, -53.000000) "></path>
            </g>
            <g id="Arrows-gray" sketch:type="MSLayerGroup" transform="translate(700.000000, 200.000000)" stroke="#9C9C9C">
                <path d="M54.254717,-0.279296875 L-0.131086656,53.0993623 L53.4922299,105.729654" id="Path-53" sketch:type="MSShapeGroup"></path>
                <path d="M154.254717,-0.279296875 L99.8689133,53.0993623 L153.49223,105.729654" id="Path-54" sketch:type="MSShapeGroup" transform="translate(127.000000, 53.000000) rotate(-180.000000) translate(-127.000000, -53.000000) "></path>
            </g>
            <g id="Arrows-blue" sketch:type="MSLayerGroup" transform="translate(700.000000, 400.000000)" stroke="#008ACC">
                <path d="M54.254717,-0.279296875 L-0.131086656,53.0993623 L53.4922299,105.729654" id="Path-53" sketch:type="MSShapeGroup"></path>
                <path d="M154.254717,-0.279296875 L99.8689133,53.0993623 L153.49223,105.729654" id="Path-54" sketch:type="MSShapeGroup" transform="translate(127.000000, 53.000000) rotate(-180.000000) translate(-127.000000, -53.000000) "></path>
            </g>
            <g id="Arrows-black" sketch:type="MSLayerGroup" transform="translate(700.000000, 600.000000)" stroke="#000000">
                <path d="M54.254717,-0.279296875 L-0.131086656,53.0993623 L53.4922299,105.729654" id="Path-53" sketch:type="MSShapeGroup"></path>
                <path d="M154.254717,-0.279296875 L99.8689133,53.0993623 L153.49223,105.729654" id="Path-54" sketch:type="MSShapeGroup" transform="translate(127.000000, 53.000000) rotate(-180.000000) translate(-127.000000, -53.000000) "></path>
            </g>
        </g>
    </g>
</svg>